<svg class="border shadow-md" viewBox="0 0 1351.68 675.84" style="width: 1351.68px; height: 675.84px;" xmlns="http://www.w3.org/2000/svg" preserveAspectRatio="none"><rect class="bg" id="bg" x="0" y="0" width="1351.68" height="675.84" fill="#ffffff"/><path d="M 0 -56.32 L 0 -56.32&#10;                L 150.19 -18.32&#10;                L 450.56 -56.32 L 450.56 -56.32&#10;                L 600.75 -7.32&#10;                L 901.12 -56.32 L 901.12 -56.32&#10;                L 1051.31 -28.16&#10;                L 1351.68 -56.32 L 1351.68 -56.32&#10;                L 1645.68 -21.32&#10;                L 1802.24 -56.32  V 675.84 H 0 V -56.32 Z" fill="#1A1A1A"/><path d="M 0 0 L 0 0.00&#10;                L 150.19 28.16&#10;                L 450.56 0.00 L 450.56 0.00&#10;                L 600.75 28.16&#10;                L 901.12 0.00 L 901.12 0.00&#10;                L 1139.12 55.00&#10;                L 1351.68 0.00 L 1351.68 0.00&#10;                L 1521.68 28.16&#10;                L 1802.24 0.00  V 675.84 H 0 V 0.00 Z" fill="#181b20"/><path d="M 0 56.32 L 0 56.32&#10;                L 300.00 84.48&#10;                L 450.56 56.32 L 450.56 56.32&#10;                L 600.75 84.48&#10;                L 901.12 56.32 L 901.12 56.32&#10;                L 1051.31 84.48&#10;                L 1351.68 56.32 L 1351.68 56.32&#10;                L 1501.87 92.32&#10;                L 1802.24 56.32  V 675.84 H 0 V 56.32 Z" fill="#161c26"/><path d="M 0 112.64 L 0 112.64&#10;                L 150.19 140.80&#10;                L 450.56 112.64 L 450.56 112.64&#10;                L 600.75 140.80&#10;                L 901.12 112.64 L 901.12 112.64&#10;                L 1051.31 140.80&#10;                L 1351.68 112.64 L 1351.68 112.64&#10;                L 1525.68 140.80&#10;                L 1802.24 112.64  V 675.84 H 0 V 112.64 Z" fill="#141d2c"/><path d="M 0 168.96 L 0 168.96&#10;                L 321.00 210.96&#10;                L 450.56 168.96 L 450.56 168.96&#10;                L 600.75 197.12&#10;                L 901.12 168.96 L 901.12 168.96&#10;                L 1137.12 197.12&#10;                L 1351.68 168.96 L 1351.68 168.96&#10;                L 1644.68 211.96&#10;                L 1802.24 168.96  V 675.84 H 0 V 168.96 Z" fill="#121e32"/><path d="M 0 225.28 L 0 225.28&#10;                L 150.19 253.44&#10;                L 450.56 225.28 L 450.56 225.28&#10;                L 708.56 260.28&#10;                L 901.12 225.28 L 901.12 225.28&#10;                L 1051.31 253.44&#10;                L 1351.68 225.28 L 1351.68 225.28&#10;                L 1659.68 253.44&#10;                L 1802.24 225.28  V 675.84 H 0 V 225.28 Z" fill="#101f38"/><path d="M 0 281.6 L 0 281.60&#10;                L 150.19 309.76&#10;                L 450.56 281.60 L 450.56 281.60&#10;                L 600.75 310.60&#10;                L 901.12 281.60 L 901.12 281.60&#10;                L 1086.12 309.76&#10;                L 1351.68 281.60 L 1351.68 281.60&#10;                L 1501.87 336.60&#10;                L 1802.24 281.60  V 675.84 H 0 V 281.60 Z" fill="#0e203e"/><path d="M 0 337.92 L 0 337.92&#10;                L 162.00 366.08&#10;                L 450.56 337.92 L 450.56 337.92&#10;                L 600.75 366.08&#10;                L 901.12 337.92 L 901.12 337.92&#10;                L 1051.31 366.08&#10;                L 1351.68 337.92 L 1351.68 337.92&#10;                L 1501.87 372.92&#10;                L 1802.24 337.92  V 675.84 H 0 V 337.92 Z" fill="#0c2144"/><path d="M 0 394.24 L 0 394.24&#10;                L 190.00 422.40&#10;                L 450.56 394.24 L 450.56 394.24&#10;                L 600.75 447.24&#10;                L 901.12 394.24 L 901.12 394.24&#10;                L 1051.31 438.24&#10;                L 1351.68 394.24 L 1351.68 394.24&#10;                L 1655.68 422.40&#10;                L 1802.24 394.24  V 675.84 H 0 V 394.24 Z" fill="#0a224a"/><path d="M 0 450.56 L 0 450.56&#10;                L 193.00 498.56&#10;                L 450.56 450.56 L 450.56 450.56&#10;                L 600.75 478.72&#10;                L 901.12 450.56 L 901.12 450.56&#10;                L 1172.12 478.72&#10;                L 1351.68 450.56 L 1351.68 450.56&#10;                L 1669.68 478.72&#10;                L 1802.24 450.56  V 675.84 H 0 V 450.56 Z" fill="#082350"/><path d="M 0 506.88 L 0 506.88&#10;                L 151.00 535.04&#10;                L 450.56 506.88 L 450.56 506.88&#10;                L 600.75 549.88&#10;                L 901.12 506.88 L 901.12 506.88&#10;                L 1051.31 548.88&#10;                L 1351.68 506.88 L 1351.68 506.88&#10;                L 1501.87 548.88&#10;                L 1802.24 506.88  V 675.84 H 0 V 506.88 Z" fill="#062456"/><path d="M 0 563.2 L 0 563.20&#10;                L 150.19 598.20&#10;                L 450.56 563.20 L 450.56 563.20&#10;                L 686.56 604.20&#10;                L 901.12 563.20 L 901.12 563.20&#10;                L 1087.12 591.36&#10;                L 1351.68 563.20 L 1351.68 563.20&#10;                L 1501.87 591.36&#10;                L 1802.24 563.20  V 675.84 H 0 V 563.20 Z" fill="#04255c"/><path d="M 0 619.52 L 0 619.52&#10;                L 306.00 658.52&#10;                L 450.56 619.52 L 450.56 619.52&#10;                L 669.56 647.68&#10;                L 901.12 619.52 L 901.12 619.52&#10;                L 1144.12 647.68&#10;                L 1351.68 619.52 L 1351.68 619.52&#10;                L 1680.68 647.68&#10;                L 1802.24 619.52  V 675.84 H 0 V 619.52 Z" fill="#022662"/></svg>