<svg class="border shadow-md" viewBox="0 0 1351.68 675.84" style="width: 1351.68px; height: 675.84px;" xmlns="http://www.w3.org/2000/svg" preserveAspectRatio="none"><rect class="bg" id="bg" x="0" y="0" width="1351.68" height="675.84" fill="#ffffff"/><path d="M 0 -67.584 L 0 -67.58&#10;                L 123.00 -18.58&#10;                L 270.336 -67.58 L 270.336 -67.58&#10;                L 360.45 -13.58&#10;                L 540.672 -67.58 L 540.672 -67.58&#10;                L 734.67 -30.58&#10;                L 811.008 -67.58 L 811.008 -67.58&#10;                L 901.12 -3.58&#10;                L 1081.344 -67.58 L 1081.344 -67.58&#10;                L 1224.34 -33.79&#10;                L 1351.68 -67.58 L 1351.68 -67.58&#10;                L 1441.79 -31.58&#10;                L 1622.016 -67.58  V 675.84 H 0 V -67.58 Z" fill="#1A1A1A"/><path d="M 0 0 L 0 0.00&#10;                L 187.00 33.79&#10;                L 270.336 0.00 L 270.336 0.00&#10;                L 360.45 58.00&#10;                L 540.672 0.00 L 540.672 0.00&#10;                L 676.67 33.79&#10;                L 811.008 0.00 L 811.008 0.00&#10;                L 1011.01 36.00&#10;                L 1081.344 0.00 L 1081.344 0.00&#10;                L 1171.46 33.79&#10;                L 1351.68 0.00 L 1351.68 0.00&#10;                L 1441.79 33.79&#10;                L 1622.016 0.00  V 675.84 H 0 V 0.00 Z" fill="#211f22"/><path d="M 0 67.584 L 0 67.58&#10;                L 90.11 101.38&#10;                L 270.336 67.58 L 270.336 67.58&#10;                L 382.34 101.58&#10;                L 540.672 67.58 L 540.672 67.58&#10;                L 723.67 101.38&#10;                L 811.008 67.58 L 811.008 67.58&#10;                L 927.01 101.38&#10;                L 1081.344 67.58 L 1081.344 67.58&#10;                L 1171.46 101.38&#10;                L 1351.68 67.58 L 1351.68 67.58&#10;                L 1527.68 101.38&#10;                L 1622.016 67.58  V 675.84 H 0 V 67.58 Z" fill="#28242a"/><path d="M 0 135.168 L 0 135.17&#10;                L 90.11 192.17&#10;                L 270.336 135.17 L 270.336 135.17&#10;                L 360.45 168.96&#10;                L 540.672 135.17 L 540.672 135.17&#10;                L 630.78 201.17&#10;                L 811.008 135.17 L 811.008 135.17&#10;                L 901.12 185.17&#10;                L 1081.344 135.17 L 1081.344 135.17&#10;                L 1198.34 168.96&#10;                L 1351.68 135.17 L 1351.68 135.17&#10;                L 1463.68 184.17&#10;                L 1622.016 135.17  V 675.84 H 0 V 135.17 Z" fill="#2f2932"/><path d="M 0 202.752 L 0 202.75&#10;                L 93.00 241.75&#10;                L 270.336 202.75 L 270.336 202.75&#10;                L 360.45 236.54&#10;                L 540.672 202.75 L 540.672 202.75&#10;                L 657.67 236.54&#10;                L 811.008 202.75 L 811.008 202.75&#10;                L 901.12 236.54&#10;                L 1081.344 202.75 L 1081.344 202.75&#10;                L 1281.34 239.75&#10;                L 1351.68 202.75 L 1351.68 202.75&#10;                L 1494.68 264.75&#10;                L 1622.016 202.75  V 675.84 H 0 V 202.75 Z" fill="#362e3a"/><path d="M 0 270.336 L 0 270.34&#10;                L 90.11 304.13&#10;                L 270.336 270.34 L 270.336 270.34&#10;                L 360.45 304.13&#10;                L 540.672 270.34 L 540.672 270.34&#10;                L 732.67 304.13&#10;                L 811.008 270.34 L 811.008 270.34&#10;                L 901.12 309.34&#10;                L 1081.344 270.34 L 1081.344 270.34&#10;                L 1262.34 325.34&#10;                L 1351.68 270.34 L 1351.68 270.34&#10;                L 1441.79 304.13&#10;                L 1622.016 270.34  V 675.84 H 0 V 270.34 Z" fill="#3d3342"/><path d="M 0 337.92 L 0 337.92&#10;                L 117.00 371.71&#10;                L 270.336 337.92 L 270.336 337.92&#10;                L 360.45 371.71&#10;                L 540.672 337.92 L 540.672 337.92&#10;                L 690.67 371.71&#10;                L 811.008 337.92 L 811.008 337.92&#10;                L 901.12 385.92&#10;                L 1081.344 337.92 L 1081.344 337.92&#10;                L 1173.34 380.92&#10;                L 1351.68 337.92 L 1351.68 337.92&#10;                L 1552.68 400.92&#10;                L 1622.016 337.92  V 675.84 H 0 V 337.92 Z" fill="#44384a"/><path d="M 0 405.504 L 0 405.50&#10;                L 90.11 439.30&#10;                L 270.336 405.50 L 270.336 405.50&#10;                L 360.45 444.50&#10;                L 540.672 405.50 L 540.672 405.50&#10;                L 630.78 461.50&#10;                L 811.008 405.50 L 811.008 405.50&#10;                L 901.12 439.30&#10;                L 1081.344 405.50 L 1081.344 405.50&#10;                L 1254.34 439.30&#10;                L 1351.68 405.50 L 1351.68 405.50&#10;                L 1482.68 439.30&#10;                L 1622.016 405.50  V 675.84 H 0 V 405.50 Z" fill="#4b3d52"/><path d="M 0 473.088 L 0 473.09&#10;                L 148.00 506.88&#10;                L 270.336 473.09 L 270.336 473.09&#10;                L 360.45 506.88&#10;                L 540.672 473.09 L 540.672 473.09&#10;                L 730.67 515.09&#10;                L 811.008 473.09 L 811.008 473.09&#10;                L 901.12 506.88&#10;                L 1081.344 473.09 L 1081.344 473.09&#10;                L 1254.34 506.88&#10;                L 1351.68 473.09 L 1351.68 473.09&#10;                L 1480.68 510.09&#10;                L 1622.016 473.09  V 675.84 H 0 V 473.09 Z" fill="#52425a"/><path d="M 0 540.672 L 0 540.67&#10;                L 146.00 583.67&#10;                L 270.336 540.67 L 270.336 540.67&#10;                L 390.34 574.46&#10;                L 540.672 540.67 L 540.672 540.67&#10;                L 630.78 602.67&#10;                L 811.008 540.67 L 811.008 540.67&#10;                L 901.12 574.46&#10;                L 1081.344 540.67 L 1081.344 540.67&#10;                L 1273.34 604.67&#10;                L 1351.68 540.67 L 1351.68 540.67&#10;                L 1467.68 574.46&#10;                L 1622.016 540.67  V 675.84 H 0 V 540.67 Z" fill="#594762"/><path d="M 0 608.2560000000001 L 0 608.26&#10;                L 133.00 642.26&#10;                L 270.336 608.26 L 270.336 608.26&#10;                L 395.34 665.26&#10;                L 540.672 608.26 L 540.672 608.26&#10;                L 655.67 672.26&#10;                L 811.008 608.26 L 811.008 608.26&#10;                L 974.01 668.26&#10;                L 1081.344 608.26 L 1081.344 608.26&#10;                L 1171.46 642.05&#10;                L 1351.68 608.26 L 1351.68 608.26&#10;                L 1441.79 642.05&#10;                L 1622.016 608.26  V 675.84 H 0 V 608.26 Z" fill="#604c6a"/></svg>